<svg id="Layer_1" data-name="Layer 1" xmlns="http://www.w3.org/2000/svg" viewBox="0 0 154.36 47.93"><defs><style>.cls-1,.cls-4,.cls-6{fill:none;stroke-miterlimit:10;}.cls-1,.cls-4{stroke:#fff;}.cls-1{stroke-width:1.32px;}.cls-2{fill:#fff568;}.cls-3{fill:#924c04;}.cls-5{font-size:11.3px;fill:#fff;font-family:Beau-Regular, Beau;}.cls-6{stroke:#fff568;}</style></defs><title>Logo 02</title><path class="cls-1" d="M221.48,207.06a10.37,10.37,0,1,1-10.59,10.14,10.38,10.38,0,0,1,10.59-10.14m.06-3a13.4,13.4,0,1,0,13.1,13.69A13.41,13.41,0,0,0,221.54,204Z" transform="translate(-90.35 -193.83)"/><path class="cls-2" d="M227.65,218.8l0-.61-.68-.3c0-.11,0-.23,0-.34l.65-.35-.1-.61-.73-.1-.11-.33.54-.51-.26-.55-.74.08c-.05-.1-.12-.19-.18-.29l.39-.63-.4-.47-.68.28-.26-.24.21-.7-.5-.36-.59.44-.31-.16,0-.73-.57-.21-.46.57-.34-.07-.17-.71-.61-.06-.29.67-.35,0-.35-.64-.6.11-.11.71-.34.11-.5-.53-.55.26.08.72-.3.19-.62-.37-.46.39.26.67-.24.27-.69-.21-.35.5.43.58a3.24,3.24,0,0,0-.17.32l-.72,0-.21.58.57.44c0,.12-.06.24-.08.36l-.7.16,0,.61.66.29c0,.12,0,.24,0,.36l-.63.34.11.61.71.1a3.38,3.38,0,0,0,.11.34l-.52.5.26.55.71-.08.2.3-.38.62.39.47.67-.27.27.24-.21.69.51.35.58-.43.31.17,0,.72.58.21.45-.57.35.07.17.71.61.06.29-.68H222l.34.64.61-.11.1-.72.34-.11.5.54.56-.26-.09-.74a2.82,2.82,0,0,0,.29-.18l.63.38.47-.39-.27-.69.23-.25.71.21.35-.5-.44-.6.15-.3.74,0,.21-.58-.58-.46c0-.11.05-.22.07-.33Zm-6.52,3.75a4.59,4.59,0,1,1,5-4.18A4.59,4.59,0,0,1,221.13,222.55Z" transform="translate(-90.35 -193.83)"/><path class="cls-2" d="M222.8,216a2.36,2.36,0,1,0,.79,3.24A2.36,2.36,0,0,0,222.8,216Zm.24,2.9a1.71,1.71,0,1,1-.58-2.35A1.72,1.72,0,0,1,223,218.85Z" transform="translate(-90.35 -193.83)"/><path class="cls-2" d="M223.31,215.12a3.33,3.33,0,1,0,1.12,4.57A3.33,3.33,0,0,0,223.31,215.12Zm1,4.49a3.18,3.18,0,1,1-1.07-4.36A3.18,3.18,0,0,1,224.3,219.61Z" transform="translate(-90.35 -193.83)"/><polygon class="cls-3" points="99 9.68 131.85 23.83 131.54 24.71 98.69 10.57 99 9.68"/><polygon class="cls-3" points="97.29 15.29 97.63 15.12 103.74 12.71 90.8 7.26 84.28 9.8 97.29 15.29"/><path class="cls-3" d="M178.6,193.83l2.77,6.35,12.94,5.46a30.36,30.36,0,0,1-2.74-6.34Z" transform="translate(-90.35 -193.83)"/><path class="cls-4" d="M223.74,194.6l-.07,3.36a19.59,19.59,0,0,1,15.25,27.95l2.91,1.71a23,23,0,0,0-18.09-33Z" transform="translate(-90.35 -193.83)"/><path class="cls-4" d="M220.81,237a19.44,19.44,0,0,1-11.69-4.21L206,234.57a22.95,22.95,0,0,0,34-3.91L237.1,229A19.57,19.57,0,0,1,220.81,237Z" transform="translate(-90.35 -193.83)"/><path class="cls-4" d="M201.64,217a19.63,19.63,0,0,1,18.49-19.14l.07-3.36a22.91,22.91,0,0,0-21.54,27.07l3.13-1.75A18.76,18.76,0,0,1,201.64,217Z" transform="translate(-90.35 -193.83)"/><text class="cls-5" transform="translate(72.04 40.26)">Mission</text><path class="cls-6" d="M204.65,241.26H137.39a3.81,3.81,0,0,1-3.79-3.8" transform="translate(-90.35 -193.83)"/><path class="cls-6" d="M90.35,233.67H129.8a3.81,3.81,0,0,1,3.8,3.8" transform="translate(-90.35 -193.83)"/></svg>