<svg id="Layer_1" data-name="Layer 1" xmlns="http://www.w3.org/2000/svg" viewBox="0 0 94.25 49.15"><defs><style>.cls-1,.cls-5{fill:none;stroke-miterlimit:10;}.cls-1{stroke:#fff;}.cls-2{fill:#924c04;}.cls-3{fill:#fff568;}.cls-4{font-size:11.3px;fill:#fff;font-family:Beau-Regular, Beau;}.cls-5{stroke:#fff568;}</style></defs><title>Logo 01</title><path class="cls-1" d="M147.83,146.69s-4.2-4.72-14.4,1.16c-7.21,3.7-15.79,9.12-23.47,2.29s-11.86-10-13.46-10.48c1.43-2.09,7.71-11.9,29.68-10.2-1.5-.74-13.41-7.23-26.93,2.31-12.94,9.13-8.54,21-8.54,21s-6.6-14.63,7.05-23.52c14-9.13,28.34-5.47,37.48,2.74A55.55,55.55,0,0,1,147.83,146.69Z" transform="translate(-88.62 -123.4)"/><circle class="cls-2" cx="119.93" cy="140.97" r="10.07" transform="translate(-150.3 -18.14) rotate(-38.49)"/><path class="cls-3" d="M127.2,141.8l0-.73-.82-.33c0-.14,0-.28,0-.41l.76-.44-.14-.72-.88-.11c0-.13-.08-.26-.13-.39l.63-.62-.33-.65-.87.12a4,4,0,0,0-.23-.34l.45-.77-.49-.54-.81.34a2.61,2.61,0,0,0-.31-.27l.23-.85-.61-.41-.69.54-.37-.18v-.88l-.69-.23-.53.69-.41-.08-.22-.84-.73,0-.33.81-.42,0-.43-.75-.72.14-.1.86-.41.14-.61-.62-.65.33.12.86-.36.23-.75-.43-.54.48.33.79-.28.33-.83-.23-.41.61.53.68a3.54,3.54,0,0,0-.19.39h-.86l-.23.69.68.52c0,.14-.06.28-.08.43l-.83.21,0,.73.8.33a3.11,3.11,0,0,0,0,.43l-.75.42.14.72.85.11c0,.14.09.27.15.41l-.62.6.33.66.85-.12.24.35-.43.75.48.55.8-.34c.1.1.21.19.32.28l-.23.84.61.4.68-.53.39.19v.86l.69.24.53-.7.41.08.22.85.73,0,.33-.81.42,0,.43.75.72-.14.11-.87.39-.13.62.62.66-.33-.13-.87.35-.23.76.45.55-.49-.35-.81a4.12,4.12,0,0,0,.28-.31l.85.23.4-.61-.54-.69.18-.37h.88L127,143l-.71-.53c0-.14.06-.27.08-.41Zm-7.69,4.65a5.49,5.49,0,1,1,5.82-5.12A5.48,5.48,0,0,1,119.51,146.45Z" transform="translate(-88.62 -123.4)"/><path class="cls-3" d="M121.33,138.53a2.82,2.82,0,1,0,1,3.84A2.8,2.8,0,0,0,121.33,138.53Zm.37,3.46a2,2,0,1,1-.75-2.79A2.06,2.06,0,0,1,121.7,142Z" transform="translate(-88.62 -123.4)"/><path class="cls-3" d="M121.92,137.52a4,4,0,1,0,1.45,5.44A4,4,0,0,0,121.92,137.52Zm1.3,5.34a3.8,3.8,0,1,1-1.4-5.18A3.81,3.81,0,0,1,123.22,142.86Z" transform="translate(-88.62 -123.4)"/><text class="cls-4" transform="translate(2.18 45.28)">Vision</text><path class="cls-5" d="M91.47,172.06h46.65a3.8,3.8,0,0,0,3.79-3.8" transform="translate(-88.62 -123.4)"/><path class="cls-5" d="M182.87,164.48H145.25a3.86,3.86,0,0,0-3.85,3.85" transform="translate(-88.62 -123.4)"/></svg>